<?xml version="1.0" encoding="UTF-8" standalone="no"?>
<!-- Created with Inkscape (http://www.inkscape.org/) -->

<svg
   version="1.1"
   id="svg1"
   width="538.11658"
   height="177.2755"
   viewBox="0 0 538.11658 177.2755"
   sodipodi:docname="GetImage (2).png"
   xmlns:inkscape="http://www.inkscape.org/namespaces/inkscape"
   xmlns:sodipodi="http://sodipodi.sourceforge.net/DTD/sodipodi-0.dtd"
   xmlns="http://www.w3.org/2000/svg"
   xmlns:svg="http://www.w3.org/2000/svg">
  <defs
     id="defs1" />
  <sodipodi:namedview
     id="namedview1"
     pagecolor="#505050"
     bordercolor="#ffffff"
     borderopacity="1"
     inkscape:showpageshadow="0"
     inkscape:pageopacity="0"
     inkscape:pagecheckerboard="1"
     inkscape:deskcolor="#505050" />
  <g
     inkscape:groupmode="layer"
     inkscape:label="Image"
     id="g1"
     transform="translate(-6.793478,-201.52382)">
    <path
       style="fill:#191919;stroke:none"
       d="m 432.69298,202.42312 c -13.94092,3.66247 -25.53715,24.58074 -17.24402,37.98394 4.68697,7.57496 18.98869,9.47677 26.94556,7.30418 27.6641,-7.5536 20.06876,-53.10917 -9.70154,-45.28812 m -422.298462,31.41927 2,-0.66667 2,6 h 1.333333 l -0.666667,-24 c 23.138802,-0.0894 45.667318,-3.59908 68.666667,-4.59327 13.642222,-0.58971 28.383539,2.19487 41.333329,-2.74006 -5.53085,-3.28727 -11.91786,-0.86819 -18,-1.86212 -23.753154,-3.88172 -47.29447,-0.13788 -71.333329,-0.13788 -8.388606,0 -22.046033,-0.008 -27.8655273,7.54844 -3.3423071,4.34002 2.1905933,15.24823 2.5321943,20.45156 m 441.333332,-24.66667 -14,-4 c 5.35791,-1.17488 9.96818,0.3855 14,4 m -2.66667,9.33334 -8.66666,-11.33334 c 13.61678,3.52821 16.34289,11.57419 14.66666,24.66667 h -0.66666 c -0.31682,-5.23034 -1.78915,-9.36179 -6,-12.66667 3.11047,7.28671 7.62646,22.97054 -6.65813,19.35694 -2.31917,-0.58668 -4.4954,-1.73025 -6.67521,-2.69027 3.79464,4.68356 8.25993,5.30353 14,5.33333 v 0.66667 c -9.8457,5.67635 -28.19568,5.16614 -32.16137,-8.00312 -2.58183,-8.57368 4.97359,-19.8475 11.49471,-24.66355 l -6,13.33334 c 3.73893,-3.33005 6.1643,-13.34927 11.04032,-14.50096 5.50525,-1.30031 11.07853,8.24524 15.62634,10.50096 m -401.999996,-10 v 0.66666 l -26.666666,0.66667 c 7.015319,-3.96578 18.746037,-1.33333 26.666666,-1.33333 m 376.666666,1.33333 -2,2 2,-2 m -2,2.66667 -2,2 2,-2 m -2,2.66666 -0.66667,0.66667 0.66667,-0.66667 M 11.061184,273.84239 c 1.08739,3.09241 3.834233,2.48691 6.666667,2.85957 6.450167,0.84863 12.811844,2.19376 19.333333,2.47376 -6.231221,7.87343 -13.879292,15.89964 -18.732114,24.66665 -1.86759,3.37397 -4.353455,7.51764 -2.601219,11.33336 l -0.666667,2.66666 c 6.386455,-4.23181 9.901866,-14.14708 15.05542,-19.96585 7.642538,-8.62902 18.588354,-14.03216 28.94458,-18.70082 v -1.33333 l -6,-1.33333 v -0.66667 l 4.666667,-1.33333 c -1.733292,-4.37477 -7.617894,-2.15582 -11.333333,-2.01586 -11.037079,0.41575 -24.775263,-1.42801 -35.333334,1.34919 m 457.333336,16.66667 c -5.04419,-14.56601 -25.54151,-9.02199 -37.33334,-7.63725 -4.66516,0.54784 -10.84798,-0.0395 -14.66666,2.97058 h 8.66666 v 0.66667 c -2.69124,0.0244 -5.01127,-0.14518 -6,2.66666 10.76262,-0.87741 19.98877,-1.13661 30.66667,0.68854 4.60555,0.78721 9.50403,0.96355 13.10701,4.3392 6.08704,5.70296 3.86174,18.66407 4.31373,26.3056 0.5653,9.55754 5.10123,19.8277 7.03507,29.33333 0.97168,4.77627 4.45072,11.70248 1.53626,16.32695 -3.05176,4.84228 -12.43413,2.68795 -17.3254,4.33972 5.21744,3.48584 21.2843,3.79051 22.98746,-4.08677 1.74952,-8.09173 -2.19746,-17.60122 -4.3208,-25.24656 l 9.33334,3.33333 0.66666,-0.66667 v -1.33333 l -10,-3.33333 v -0.66667 c 3.646,-0.0101 11.26827,0.6436 12.66667,-3.33333 l -12.66667,1.33333 5.33334,-6 -0.66667,-0.66667 -7.33333,5.33334 c -1.48857,-14.24825 -6.81336,-31.76543 -2,-45.33334 l 0.66666,2 h 2 c 1.88774,-5.55291 7.51111,-9.13803 12.66667,-11.42541 5.24618,-2.32761 10.84066,-4.37676 16.66667,-3.79423 11.0889,1.10874 24.87085,13.43239 23.93774,25.21964 -0.12638,1.59668 -0.4801,3.20096 -1.14042,4.66667 -5.27922,11.7181 -13.88871,3.53164 -22.13066,1.19238 -2.73702,-0.77681 -10.61157,-1.75872 -11.44547,2.21348 -0.89685,4.27216 7.21248,9.88937 10.77881,10.45164 3.88269,0.61217 7.60986,-1.31827 11.33333,-0.77622 8.32812,1.21238 19.85026,10.33227 21.19084,18.91872 2.61352,16.73967 -9.76506,19.82649 -22.52417,24.62346 -3.4948,1.31391 -9.97156,1.4904 -11.33334,5.37654 17.36532,2.62626 48.97421,-5.95373 40.40316,-29.99855 -3.01855,-8.46812 -15.28625,-12.25827 -17.10315,-20.67398 -1.5841,-7.33742 6.1685,-14.17307 3.77694,-22.66081 -4.30786,-15.28862 -25.20642,-26.93073 -40.41028,-21.08833 -8.06694,3.09988 -14.68424,11.09413 -21.33333,16.42167 m 25.33333,-15.11112 0.22221,0.22223 c -0.32902,0.10968 -0.73771,-0.22223 -0.22221,-0.22223 m -455.999999,0.44445 v 0.66667 h -4.666667 l 4.666667,-0.66667 m 454.666669,0 v 0.66667 l -4.66667,1.33333 4.66667,-2 m -452.000002,0.66667 v 0.66666 h -2 l 2,-0.66666 m 43.333333,36 v 0.66667 c 8.996684,5.50232 28.304389,3.7562 38.666669,2.66666 v -1.33333 l -30.666669,-4.66667 c 10.227989,-8.91363 26.391089,-19.2186 32.666669,-31.33333 -6.16194,0.3007 -11.97107,4.51364 -17.33334,7.33333 l 12,-7.33333 v -1.33334 c -16.81335,-0.1186 -27.509293,23.6885 -35.333329,35.33334 m 45.333329,-32.66667 v 1.33333 c 11.19639,2.595 22.58879,2 34,2 4.76322,0 11.55819,-1.18694 15.87498,1.1885 6.60486,3.63451 8.06625,16.74628 9.26357,23.47817 2.22591,12.51503 4.69582,25.35026 5.94334,38 0.89514,9.07665 0.5166,18.36333 2.25145,27.33334 h 1.33333 c 5.05253,-27.09632 -3.1391,-56.27397 -8,-82.66667 10.67975,1.55043 22.52838,0.89543 33.33333,0.63565 4.45215,-0.10705 10.3086,-1.80349 14.3985,0.55313 10.57809,6.09515 11.82803,26.95091 14.26817,37.47789 h 1.33333 l 0.66667,-3.33334 2,0.66667 c 2.87124,-8.50234 1.95268,-20.44699 1.11973,-29.33329 -0.31671,-3.37885 -0.81478,-7.50343 -3.58071,-9.83015 -4.00112,-3.36578 -10.72259,-2.00745 -15.53902,-2.23097 -4.33628,-0.20124 -8.42271,-1.62846 -12.66667,-2.40509 -11.27116,-2.06259 -21.66748,0.46504 -32.66666,-0.27315 -5.90031,-0.39599 -11.98214,-2.95758 -18,-3.66098 -14.1,-1.64812 -31.39311,-1.62921 -45.33334,1.06696 m -85.999996,-0.66667 -6,4 6,-4 m 8,0.66667 v 0.66667 l -21.333333,13.33333 c 5.674805,-6.64521 12.79645,-11.87088 21.333333,-14 m 251.999996,2.66667 v 2 l -6,2 h 8.66667 l 0.66667,2 c 8.93554,-2.27008 18.18326,-2.00067 27.33333,-2 3.84819,2.8e-4 9.09725,-0.44627 12.57157,1.52109 6.81861,3.86107 15.39612,23.03518 9.28447,29.726 -5.396,5.90731 -19.05923,5.39154 -26.52271,5.42009 -3.72098,0.0142 -9.77256,0.0496 -11.33333,3.99949 12.20339,1.85131 28.988,2.13801 39.6224,-5.41673 10.79927,-7.67186 7.24654,-32.38107 -2.79843,-39.61016 -3.16227,-2.2758 -8.47041,-0.98536 -12.1573,-1.28 -13.37612,-1.06894 -26.08179,1.63386 -39.33334,1.64022 m 66.66667,2.66666 c 15.28353,-1.75284 28.87016,-4.90348 42.66667,4.66667 -9.46973,-3.08032 -19.36178,-4.66282 -29.33334,-4.66667 -3.36368,-0.001 -8.65531,-1.15748 -10,2.66667 l 2.66667,2 c 11.14807,-1.88957 40.67448,-2.24705 40.90487,14.00013 0.12752,8.99336 -8.00301,15.32851 -8.90487,23.99987 12.53035,5.07237 24.41305,13.39473 28.76265,26.66667 1.69007,5.15686 1.54712,10.7079 2.57068,16 h 0.66667 l 0.66667,-2 h 0.66666 v 2 c 5.3818,-2.43184 2.78711,-11.02517 1.2371,-15.33333 -4.46525,-12.41083 -14.46578,-24.7888 -26.57043,-30 8.65479,-11.62921 9.76949,-28.06255 -2.70679,-38.34877 -4.05892,-3.34644 -12.14034,-5.27391 -17.29321,-6.13272 -6.1606,-1.02678 -13.99243,-0.64863 -20,0.95988 -2.47868,0.66365 -5.22302,0.86539 -6,3.5216 m -182.66667,-2 1.33334,2 -1.33334,-2 m 24,0 -0.66666,0.66667 0.66666,-0.66667 m -12,0.66667 -0.66666,0.66667 0.66666,-0.66667 m 19.33334,0.22222 0.22223,0.22223 c -0.329,0.10967 -0.73784,-0.22223 -0.22223,-0.22223 m 136,2.44445 v 0.66666 l -5.33334,-2 5.33334,1.33334 m 111.33333,6 c -6.93449,-4.02437 -14.79574,-5.02404 -22.66667,-6 8.26282,-2.83996 19.76559,-4.26717 22.66667,6 m -358.66667,-6.66667 -2,2 2,-2 m 120,1.33333 v 0.66667 c -9.02752,0.0627 -22.65297,3.6628 -30.66666,-1.33333 l 30.66666,0.66666 m 55.33334,-0.66666 c -2.54452,9.18544 -0.53304,21.30304 0.66666,30.66667 l 2.66667,-0.66667 c 0.19033,3.06946 0.28986,5.95811 3.33333,7.33333 l -3.32814,-23.33333 -3.33852,-14 m -88,1.33333 v 0.66667 l -3.33334,-0.66667 h 3.33334 m 60.66666,19.33334 h -0.66666 l -6,-19.33334 c 7.58628,2.3548 6.64135,12.78432 6.66666,19.33334 m 105.33334,6 h -0.66667 c -0.45691,-9.59082 -4.50712,-16.62979 -9.33333,-24.66667 10.49454,3.16959 9.99568,15.48371 10,24.66667 m -114.66667,-24.00001 2,2 -2.66667,-1.33333 0.66667,-0.66667 m -58.66667,2 -0.66666,0.66667 0.66666,-0.66667 m 65.33334,26.66667 h -0.66667 c -1.74736,-9.4257 -5.69649,-18.16943 -10,-26.66667 8.06519,4.45877 10.091,18.2153 10.66667,26.66667 m -147.33334,-25.33333 -8.666662,8.66667 8.666662,-8.66667 m 82.66667,0 2,9.33333 h -0.66667 l -1.33333,-9.33333 m 232,8.66667 v 2 h -0.66667 l 0.66667,-2 m -268.34163,1.63094 c -10.17027,4.73394 -7.90055,26.51645 5.47108,20.09203 8.96509,-4.3073 5.01556,-24.97326 -5.47108,-20.09203 m 39.0083,-0.29761 4,27.33333 h -0.66667 l -3.33333,-27.33333 m 196.20715,2.30602 c -7.87162,2.41236 -2.48848,14.74505 5.56645,11.70759 7.04781,-2.65769 0.29992,-13.50541 -5.56645,-11.70759 m 33.79285,-0.30602 c -0.0177,7.91736 -1.16834,14.44592 -8,19.33333 l 8,-19.33333 m -267.07925,2.47012 c 3.04536,-0.38781 6.96291,7.02317 3.25918,7.83328 -4.27979,0.9361 -7.39822,-7.30619 -3.25918,-7.83328 m 234.18516,1.35102 c 3.75879,-1.33667 7.76876,4.62375 3.23181,6.09679 -3.88842,1.26248 -7.45841,-4.59377 -3.23181,-6.09679 m 110.22742,0.84553 v 3.33333 c -1.30269,-1.4566 -1.48356,-2.00265 0,-3.33333 m -349.33333,1.33333 c 2.08163,4.55918 5.14538,6.4502 10,7.33333 -5.52748,8.56775 -13.02739,0.51664 -10,-7.33333 m 366,5.33333 v 0.66667 c -5.98767,-9e-5 -12.18746,1.24552 -14.66667,-5.33333 5.75305,0.0838 9.83899,1.55686 14.66667,4.66666 m -44.22221,0.44444 -0.22225,0.44446 0.22225,-0.44446 m 52.88887,3.55556 -2,-0.66666 2,0.66666 m -186.66666,8.66667 v 2.66667 h -2 c 0.41388,4.59021 2.93994,11.32687 0.14471,15.53837 -3.50738,5.2845 -14.70351,2.78036 -20.14471,3.79496 v 1.33333 c 8.20485,1.52992 23.13059,3.0837 25.88004,-7.34162 1.28072,-4.85621 -0.85005,-11.19742 -1.88004,-15.99171 h -2 m 90,7.33333 -11.33334,-6.66666 c 4.91244,-0.0364 8.5083,2.87363 11.33334,6.66666 m -231.33334,-4.66666 v 2 h -0.66666 l 0.66666,-2 m 344.66667,4.66666 c 10.28206,19.53465 -12.05493,31.20964 -28.66667,31.33334 v -0.66667 c 8.25403,-2.81188 21.4504,-4.98472 25.84375,-13.3598 2.90564,-5.53907 2.05152,-11.39639 2.82292,-17.30687 m -201.55556,4.44445 -0.22221,0.44444 0.22221,-0.44444 m -54.44444,32.88889 v 1.33333 c 6.34593,1.00059 12.9126,-0.16459 19.33333,0.0489 14.04037,0.46694 27.89809,1.46908 42,1.27189 4.92115,-0.0688 17.77596,-0.50278 20.99366,-4.57365 3.87487,-4.90232 -0.37,-16.64093 -1.66032,-22.08052 -6.47233,5.363 -1.82097,15.53597 -9.54688,20.3045 -6.28243,3.87763 -18.10746,0.84605 -25.11979,0.46769 -15.62309,-0.84299 -30.69385,0.25078 -46,3.22781 m 193.11112,-23.55555 -0.22224,0.44443 0.22224,-0.44443 m -322.44445,1.5556 -1.33334,12.66666 -4.66666,-2 6,13.33334 0.66666,-3.33334 h 0.66667 c 2.58326,2.72433 5.73832,-12.72223 6,-15.33333 l -4,6.66667 h -0.66667 l -2.66666,-12 m 70.66666,0 c -1.2748,6.83665 -2.21879,18.09957 3.39297,23.36181 2.98745,2.80138 8.18703,1.9712 11.94037,1.9715 9.75567,7.9e-4 23.74719,2.16437 32,-3.99998 -9.76355,-0.57045 -19.55839,0.37002 -29.33334,-0.42041 -3.67372,-0.29706 -8.53471,0.38778 -11.22688,-2.69151 -3.76801,-4.30979 -3.50855,-12.88229 -5.43978,-18.22141 h -1.33334 m 252.44446,1.11111 -0.22225,0.44444 0.22225,-0.44444 m -77.77779,22.22222 c 0.25875,-5.82235 -2.35763,-11.09054 -4.20789,-16.49786 -0.39278,-1.1479 -1.3553,-4.92813 -3.30074,-4.19104 -1.98563,0.75233 -0.58903,4.71444 -0.21696,6.02793 1.6152,5.70238 2.71904,11.05723 7.72559,14.66097 m 40,-20 -0.66667,0.66667 0.66667,-0.66667 m -76,1.33333 c 0.57621,4.95774 2.69718,11.05342 -0.66667,15.33334 l 0.66667,-15.33334 m 76.66667,0 1.33333,12.66667 h -0.66667 l -0.66666,-12.66667 m -424.666669,3.33334 c -4.350585,2.99387 -9.6542,13.41489 -3.137583,16.76375 7.92832,4.07434 17.322614,2.61257 25.80425,2.57231 16.440897,-0.078 32.954732,-1.8679 49.333333,-3.20905 7.476888,-0.61224 18.509409,-0.66235 25.062859,-4.68591 4.06768,-2.49742 6.23917,-8.44217 7.60381,-12.77444 -6.1544,1.30699 -7.12527,9.63171 -14.00177,11.27542 -10.816643,2.58551 -22.954541,1.74239 -33.998232,2.10675 -10.04891,0.33154 -19.928599,1.95345 -30,1.95105 -6.816661,-0.002 -16.966172,0.74371 -23.033661,-2.88945 -3.618593,-2.16679 -3.077343,-7.45603 -3.633006,-11.11043 m 345.333329,8 -2.66666,4 2.66666,-4 m -348.666662,2 c 8.148539,8.21539 21.219136,6.66666 32,6.66666 v 0.66667 c -8.298272,0 -17.194034,0.90845 -25.330689,-0.95485 -3.711892,-0.85002 -7.857102,-1.82868 -6.669311,-6.37848 m 222.000002,4.66666 v 0.66667 h -4 z"
       id="path1"
       inkscape:export-filename="path1.svg"
       inkscape:export-xdpi="96"
       inkscape:export-ydpi="96" />
  </g>
</svg>
